<?xml version="1.0" encoding="UTF-8" standalone="no"?>
<!DOCTYPE svg PUBLIC "-//W3C//DTD SVG 1.1//EN" "http://www.w3.org/Graphics/SVG/1.1/DTD/svg11.dtd">
<svg width="100%" height="100%" viewBox="0 0 43 43" version="1.1" xmlns="http://www.w3.org/2000/svg" xmlns:xlink="http://www.w3.org/1999/xlink" xml:space="preserve" style="fill-rule:evenodd;clip-rule:evenodd;stroke-linecap:round;stroke-linejoin:round;stroke-miterlimit:1.5;">
    <g transform="matrix(1,0,0,1,-8.617,-7.087)">
        <circle cx="29.96" cy="28.43" r="20.843" style="fill:none;stroke:rgb(90,180,174);stroke-width:1px;"/>
    </g>
    <g transform="matrix(0.0970197,0,0,0.0970197,7.11513,5.57503)">
        <path d="M117.866,234.088C114.91,248.62 112.991,255.646 101.774,256.546C99.01,256.768 96.759,258.854 96.328,261.593C95.896,264.331 97.397,267.009 99.959,268.07C100.68,268.368 117.836,275.378 137.88,275.379C137.883,275.379 137.885,275.379 137.887,275.379C151.855,275.379 163.837,271.993 173.499,265.316C184.949,257.404 192.843,245.022 197.04,228.528L158.468,189.648C125.871,194.924 121.253,217.436 117.866,234.088Z" style="fill:rgb(90,180,174);fill-rule:nonzero;"/>
    </g>
    <g transform="matrix(0.0970197,0,0,0.0970197,7.11513,5.57503)">
        <path d="M322.745,63.336C321.708,62.29 319.858,61.043 316.939,61.043C313.516,61.043 304.423,61.043 249.199,108.035C223.69,129.741 194.279,156.594 170.885,179.445L207.488,216.339C231.549,191.33 259.617,159.984 281.939,133.081C296.035,116.095 306.874,102.079 314.155,91.424C323.799,77.311 328.023,68.655 322.745,63.336Z" style="fill:rgb(90,180,174);fill-rule:nonzero;"/>
    </g>
    <g transform="matrix(0.0970197,0,0,0.0970197,7.11513,5.57503)">
        <path d="M182.595,278.479C170.208,287.039 155.166,291.378 137.879,291.378C115.126,291.377 95.96,283.729 93.833,282.851C84.408,278.945 78.935,269.178 80.523,259.102C82.078,249.231 89.986,241.729 99.864,240.656C100.725,238.085 101.677,233.402 102.187,230.898C104.065,221.668 106.636,209.025 114.545,197.772C123.182,185.485 136.201,177.607 153.296,174.306C163.107,164.569 174.301,153.863 185.982,142.998C180.077,141.717 174.797,137.871 171.965,132.054C167.09,122.034 171.342,109.981 181.449,105.159C191.582,100.325 203.736,104.547 208.604,114.582C209.565,116.56 210.159,118.615 210.436,120.678C220.124,112.001 229.745,103.579 238.828,95.85C238.882,95.804 238.933,95.76 238.988,95.714C228.779,76.178 214.139,58.869 196.301,45.616C170.687,26.585 140.187,16.52 108.101,16.512C108.091,16.512 108.084,16.512 108.076,16.512C86.422,16.512 60.1,24.078 39.379,36.261C13.981,51.193 -0.005,71.163 0,92.49C0.008,118.238 14.53,129.008 26.199,137.661C35.714,144.718 43.229,150.291 43.233,162.505C43.236,174.718 35.725,180.286 26.215,187.336C14.55,195.984 0.031,206.748 0.039,232.499C0.045,253.823 14.04,273.798 39.445,288.743C60.181,300.941 86.517,308.523 108.175,308.529C108.19,308.529 108.203,308.529 108.217,308.529C147.522,308.529 184.471,293.358 212.261,265.809C233.098,245.154 246.917,219.393 252.534,191.367C238.582,206.838 224.537,221.86 211.971,234.689C206.641,253.965 196.773,268.682 182.595,278.479ZM111.054,77.103C113.552,66.232 124.454,59.446 135.408,61.936C146.347,64.414 153.201,75.218 150.721,86.074C148.222,96.918 137.314,103.705 126.359,101.228C115.411,98.764 108.554,87.947 111.054,77.103ZM45.054,114.152C38.049,105.436 39.489,92.751 48.27,85.813C57.05,78.888 69.841,80.308 76.859,89.008C83.849,97.711 82.404,110.396 73.63,117.348C64.869,124.288 52.058,122.853 45.054,114.152ZM55.746,247.168C46.96,240.224 45.515,227.539 52.52,218.826C59.52,210.13 72.316,208.704 81.101,215.646C89.879,222.589 91.325,235.275 84.326,243.973C77.327,252.686 64.53,254.111 55.746,247.168Z" style="fill:rgb(90,180,174);fill-rule:nonzero;"/>
    </g>
</svg>
