<?xml version="1.0" encoding="UTF-8" standalone="no"?>
<!DOCTYPE svg PUBLIC "-//W3C//DTD SVG 1.1//EN" "http://www.w3.org/Graphics/SVG/1.1/DTD/svg11.dtd">
<svg width="100%" height="100%" viewBox="0 0 43 43" version="1.1" xmlns="http://www.w3.org/2000/svg" xmlns:xlink="http://www.w3.org/1999/xlink" xml:space="preserve" style="fill-rule:evenodd;clip-rule:evenodd;stroke-linecap:round;stroke-linejoin:round;stroke-miterlimit:1.5;">
    <g transform="matrix(1,0,0,1,-8.617,-7.087)">
        <circle cx="29.96" cy="28.43" r="20.843" style="fill:none;stroke:rgb(237,168,104);stroke-width:1px;"/>
    </g>
    <g transform="matrix(0.042935,0,0,0.042935,3.05794,5.61913)">
        <path d="M662.688,13.546L491.347,345.754C492.33,346.03 493.311,346.323 494.285,346.637C501.52,348.967 508.313,351.807 514.638,355.136C522.284,359.161 529.235,363.907 535.445,369.334L707.126,36.466C713.455,24.195 708.639,9.116 696.367,2.787C684.095,-3.543 669.018,1.274 662.688,13.546Z" style="fill:rgb(237,168,104);fill-rule:nonzero;"/>
    </g>
    <g transform="matrix(0.042935,0,0,0.042935,3.05794,5.61913)">
        <path d="M96.597,629.659C123.837,654.226 157.284,675.633 196.009,693.282C261.405,723.09 318.957,731.892 321.374,732.253C321.441,732.263 321.509,732.272 321.575,732.281C322.338,732.385 323.105,732.437 323.874,732.437C324.06,732.437 324.245,732.434 324.431,732.428C393.228,730.182 446.848,707.27 483.799,664.328C532.397,607.851 549.961,522.932 546.547,449.927C545.568,429.025 538.124,407.69 523.512,392.468C522.423,391.334 521.304,390.226 520.136,389.162C515.009,384.497 509.274,380.596 503.172,377.364C497.883,374.563 492.318,372.265 486.622,370.431C484.257,369.669 481.89,369.093 479.526,368.669C476.245,368.08 472.971,367.794 469.715,367.794C445.593,367.794 422.468,382.955 404.804,398.44C386.564,414.432 368.049,431.861 347.441,445.513C324.856,460.475 300.061,468.01 274.239,475.364C240.888,484.862 206.598,490.928 172.161,494.793C141.543,498.228 110.514,500.226 79.574,500.226C67.294,500.226 55.033,499.911 42.811,499.247C42.102,499.209 41.393,499.174 40.685,499.125C40.291,499.098 39.896,499.084 39.504,499.084C34.248,499.084 29.26,501.522 26.034,505.729C22.567,510.249 21.596,516.205 23.45,521.591C37.39,562.098 62,598.457 96.597,629.659ZM72.798,534.07C72.808,534.07 72.818,534.07 72.829,534.07C74.547,534.081 76.324,534.088 78.148,534.088C103.158,534.088 138.008,532.981 177.104,528.531C259.824,519.117 327.257,498.986 378.307,468.56C379.757,467.696 381.386,467.264 383.018,467.264C384.559,467.264 386.101,467.648 387.497,468.415C417.169,484.723 463.278,508.889 496.156,520.621C500.225,522.073 502.743,526.15 502.251,530.442C498.324,564.752 487.187,608.416 457.922,642.332C427.948,677.068 383.686,695.914 326.321,698.371C326.142,698.38 325.963,698.383 325.784,698.383C325.04,698.383 324.299,698.317 323.564,698.188C317.783,697.167 303.522,694.417 284.385,689.149C289.84,686.74 295.483,683.852 301.186,680.631C306.292,677.746 311.442,674.603 316.54,671.313C332.311,661.14 347.583,649.59 359.465,640.086C362.214,637.889 359.635,633.595 356.389,634.956C330.414,645.854 297.228,653.142 267.535,657.933C258.202,659.439 249.22,660.696 240.91,661.744C231.19,662.97 222.402,663.905 215.069,664.605C213.158,663.762 211.242,662.906 209.319,662.024C192.794,654.454 177.376,646.164 163.12,637.226C169.342,636.65 175.88,635.618 182.511,634.269C188.535,633.043 194.628,631.559 200.625,629.93C218.284,625.134 235.076,619.078 246.562,614.618C248.748,613.769 247.969,610.508 245.634,610.732C224.727,612.744 195.728,612.929 170.964,612.565C162.852,612.446 155.197,612.268 148.428,612.076C139.526,611.823 132.164,611.548 127.32,611.348C124.479,608.971 121.695,606.566 118.994,604.121C115.499,600.958 112.133,597.732 108.875,594.455C113.902,593.945 119.121,593.145 124.421,592.131C129.377,591.182 134.397,590.048 139.39,588.787C159.109,583.811 178.349,576.911 191.077,571.97C193.263,571.12 192.484,567.859 190.149,568.083C170.521,569.973 143.762,570.251 120.07,569.977C114.226,569.909 108.571,569.809 103.254,569.69C97.337,569.558 91.84,569.404 86.976,569.25C80.092,560.1 74.009,550.602 68.757,540.772C67.136,537.741 69.365,534.07 72.798,534.07Z" style="fill:rgb(237,168,104);fill-rule:nonzero;"/>
    </g>
    <g transform="matrix(0.042935,0,0,0.042935,3.05794,5.61913)">
        <circle cx="621.247" cy="619.725" r="40.132" style="fill:rgb(237,168,104);"/>
    </g>
    <g transform="matrix(0.042935,0,0,0.042935,3.05794,5.61913)">
        <circle cx="534.692" cy="711.631" r="20.275" style="fill:rgb(237,168,104);"/>
    </g>
    <g transform="matrix(0.042935,0,0,0.042935,3.05794,5.61913)">
        <circle cx="644.636" cy="706.954" r="20.275" style="fill:rgb(237,168,104);"/>
    </g>
</svg>
