<?xml version="1.0" encoding="UTF-8" standalone="no"?>
<!DOCTYPE svg PUBLIC "-//W3C//DTD SVG 1.1//EN" "http://www.w3.org/Graphics/SVG/1.1/DTD/svg11.dtd">
<svg width="100%" height="100%" viewBox="0 0 43 43" version="1.1" xmlns="http://www.w3.org/2000/svg" xmlns:xlink="http://www.w3.org/1999/xlink" xml:space="preserve" style="fill-rule:evenodd;clip-rule:evenodd;stroke-linecap:round;stroke-linejoin:round;stroke-miterlimit:1.5;">
    <g transform="matrix(1,0,0,1,-8.617,-7.087)">
        <circle cx="29.96" cy="28.43" r="20.843" style="fill:none;stroke:rgb(82,100,111);stroke-width:1px;"/>
    </g>
    <g transform="matrix(0.0785289,0,0,0.0785289,6.815,7.83108)">
        <path d="M355,11.757L15,11.757C6.716,11.757 0,18.473 0,26.757L0,273.736C0,282.021 6.716,288.736 15,288.736L134.664,288.736L121.865,332.257L106.357,332.257C102.419,332.257 99.226,335.449 99.226,339.387L99.226,351.113C99.226,355.051 102.419,358.244 106.357,358.244L263.644,358.244C267.582,358.244 270.775,355.052 270.775,351.113L270.775,339.387C270.775,335.449 267.584,332.257 263.644,332.257L248.134,332.257L235.335,288.736L355,288.736C363.284,288.736 370,282.021 370,273.736L370,26.757C370,18.473 363.284,11.757 355,11.757ZM340,233.735L30,233.735L30,41.757L340,41.757L340,233.735Z" style="fill:rgb(82,100,111);fill-rule:nonzero;"/>
    </g>
    <g transform="matrix(0.0785289,0,0,0.0785289,6.81491,6.81486)">
        <path d="M167.092,166.133C167.928,168.335 170.086,169.749 172.438,169.636C174.792,169.523 176.803,167.908 177.422,165.636L180.551,154.163L207.316,180.926C209.439,183.05 212.881,183.05 215.004,180.926L221.733,174.198C223.856,172.074 223.856,168.632 221.733,166.508L194.97,139.745L206.442,136.616C208.713,135.997 210.332,133.985 210.442,131.632C210.556,129.278 209.14,127.121 206.94,126.285L154.043,106.222C152.043,105.463 149.783,105.949 148.27,107.461C146.757,108.973 146.272,111.233 147.03,113.234L167.092,166.133Z" style="fill:rgb(82,100,111);fill-rule:nonzero;"/>
    </g>
</svg>
