<?xml version="1.0" encoding="UTF-8" standalone="no"?>
<!DOCTYPE svg PUBLIC "-//W3C//DTD SVG 1.1//EN" "http://www.w3.org/Graphics/SVG/1.1/DTD/svg11.dtd">
<svg width="100%" height="100%" viewBox="0 0 43 43" version="1.1" xmlns="http://www.w3.org/2000/svg" xmlns:xlink="http://www.w3.org/1999/xlink" xml:space="preserve" style="fill-rule:evenodd;clip-rule:evenodd;stroke-linecap:round;stroke-linejoin:round;stroke-miterlimit:1.5;">
    <g transform="matrix(0.521193,0,0,0.50857,5.22284,5.61315)">
        <path d="M50.097,0.014C40.18,0.888 32.862,5.838 28.596,12.994C25.737,16.578 20.026,27.52 17.949,33.248C14.183,40.371 10.899,48.846 8.329,56.486C6.758,61.158 13.812,64.206 15.392,59.513C17.314,53.797 19.636,47.617 22.26,41.882C24.864,47.71 27.51,53.519 30.351,59.236C32.553,63.674 39.179,59.782 36.985,55.359C34.06,49.474 31.343,43.495 28.666,37.496C28.7,37.38 28.743,37.267 28.779,37.152C29.225,37.279 29.717,37.318 30.259,37.215C34.355,36.446 38.451,35.679 42.55,34.91C44.301,34.581 44.972,32.665 44.696,31.131C43.868,26.534 41.249,23.336 37.989,20.31C37.505,18.664 35.891,17.208 34.1,15.761C37.731,9.891 43.659,6.705 51.375,6.025C55.313,5.68 54.001,-0.329 50.097,0.014ZM35.173,26.143C36.186,27.197 37.048,28.306 37.699,29.59C35.717,29.962 33.734,30.333 31.752,30.705C32.752,29.095 33.903,27.575 35.173,26.143Z" style="fill:rgb(156,85,173);fill-rule:nonzero;"/>
    </g>
    <g transform="matrix(0.521193,0,0,0.50857,5.22284,5.61315)">
        <circle cx="43.653" cy="15.635" r="5.275" style="fill:rgb(156,85,173);"/>
    </g>
    <g transform="matrix(1,0,0,1,-8.61702,-7.08701)">
        <circle cx="29.96" cy="28.43" r="20.843" style="fill:none;stroke:rgb(156,85,173);stroke-width:1px;"/>
    </g>
</svg>
