<?xml version="1.0" encoding="UTF-8" standalone="no"?>
<!DOCTYPE svg PUBLIC "-//W3C//DTD SVG 1.1//EN" "http://www.w3.org/Graphics/SVG/1.1/DTD/svg11.dtd">
<svg width="100%" height="100%" viewBox="0 0 43 43" version="1.1" xmlns="http://www.w3.org/2000/svg" xmlns:xlink="http://www.w3.org/1999/xlink" xml:space="preserve" style="fill-rule:evenodd;clip-rule:evenodd;stroke-linecap:round;stroke-linejoin:round;stroke-miterlimit:1.5;">
    <g transform="matrix(1,0,0,1,-8.617,-7.087)">
        <circle cx="29.96" cy="28.43" r="20.843" style="fill:none;stroke:rgb(156,85,173);stroke-width:1px;"/>
    </g>
    <g transform="matrix(0.0695725,0,0,0.0695725,4.30571,3.70746)">
        <path d="M330.566,225.151C327.527,229.822 325.904,235.336 325.904,240.907C325.904,250.163 330.456,259.015 337.968,264.418C345.587,269.895 355.659,271.323 364.503,268.189C373.101,265.141 379.917,257.999 382.548,249.264C385.253,240.284 383.357,230.313 377.536,222.961C371.765,215.675 362.675,211.552 353.394,212.009C344.189,212.459 335.589,217.426 330.566,225.151Z" style="fill:rgb(156,85,173);fill-rule:nonzero;"/>
    </g>
    <g transform="matrix(0.0695725,0,0,0.0695725,4.30571,3.70746)">
        <path d="M409.083,340.095C409.14,341.68 409.046,338.508 409.083,340.095Z" style="fill:rgb(156,85,173);fill-rule:nonzero;"/>
    </g>
    <g transform="matrix(0.0695725,0,0,0.0695725,4.30571,3.70746)">
        <path d="M148.911,126.864C155.786,130.563 163.542,132.497 171.347,132.497C189.894,132.497 207.134,121.295 214.681,104.351C222.326,87.187 218.865,66.565 206.083,52.814C193.31,39.07 173.056,34.104 155.376,40.428C137.991,46.646 125.513,62.943 124.079,81.352C122.632,99.931 132.497,118.03 148.911,126.864Z" style="fill:rgb(156,85,173);fill-rule:nonzero;"/>
    </g>
    <g transform="matrix(0.0695725,0,0,0.0695725,4.30571,3.70746)">
        <path d="M230.743,86.291C239.796,94.46 251.722,99.04 263.915,99.04C282.44,99.04 299.794,88.348 308.146,71.813C316.614,55.052 314.675,34.348 303.269,19.441C291.903,4.585 272.669,-2.695 254.308,0.913C236.288,4.454 221.343,18.204 216.29,35.857C211.134,53.882 216.831,73.735 230.743,86.291Z" style="fill:rgb(156,85,173);fill-rule:nonzero;"/>
    </g>
    <g transform="matrix(0.0695725,0,0,0.0695725,4.30571,3.70746)">
        <path d="M392.064,348.594C392.546,353.09 396.597,356.503 401.105,356.242C405.558,355.985 409.15,352.199 409.187,347.742C409.208,345.185 409.173,342.65 409.083,340.095C408.946,334.114 407.736,327.914 405.993,322.202C404.491,317.278 402.558,312.488 400.101,307.962C394.095,296.901 385.515,287.289 375.21,280.057C372.802,278.369 370.251,276.604 367.495,275.536C359.673,271.706 350.292,271.661 342.432,275.411C340.324,276.153 338.381,277.397 336.514,278.603C334.19,280.103 331.963,281.75 329.815,283.493C324.819,287.546 320.289,292.195 316.373,297.299C309.514,306.237 304.442,316.724 302.147,327.782C300.774,334.409 300.328,340.99 300.379,347.743C300.412,352.264 304.106,356.065 308.617,356.252C313.074,356.438 317.022,353.026 317.504,348.595C318.514,339.069 320.785,329.692 326.008,321.522L326.008,330.8L306.897,407.991C306.039,411.32 305.475,414.762 311.969,414.762L327.844,414.762L330.789,479.213C331.047,484.489 335.537,488.788 340.824,488.783C346.07,488.777 350.522,484.542 350.809,479.306L354.377,414.761L355.447,414.761L358.391,479.212C358.649,484.488 363.139,488.787 368.426,488.782C373.672,488.775 378.125,484.541 378.414,479.305L381.979,414.76L397.51,414.76C399.209,414.76 400.806,414.008 401.889,412.698C402.973,411.385 403.41,409.676 403.077,407.972L383.661,330.493L383.661,321.686C388.933,329.663 391.074,339.24 392.064,348.594Z" style="fill:rgb(156,85,173);fill-rule:nonzero;"/>
        <path d="M301.083,411.677L307.675,383.14L308.571,365.433C300.349,363.363 294.382,355.99 294.321,347.299C294.251,339.337 294.842,331.545 296.644,323.776C298.446,316.007 301.343,308.644 305.136,301.645C307.384,297.499 310.058,293.558 312.962,289.849C313.318,286.614 313.259,283.368 313.259,280.118L313.259,197.425C317.447,206.455 320.38,215.91 322.763,225.559C327.917,212.994 338.965,206.632 354.242,204.108C351.719,194.302 347.723,182.084 343.496,172.859C338.098,161.085 331.547,149.914 323.371,139.839C318.033,133.258 312.063,127.213 305.596,121.743C302.44,119.12 299.158,116.633 295.728,114.378C292.846,112.484 289.75,110.806 286.625,109.321C254.133,93.881 228.336,118.964 227.697,119.53C220.763,125.689 213.83,131.848 206.896,138.009C225.191,150.904 240.314,168.026 250.916,187.72C257.703,200.326 262.41,214.202 264.742,228.322C266.328,237.921 266.773,247.514 266.693,257.236C266.582,270.466 255.373,281.502 242.137,281.388C240.129,281.371 238.176,281.113 236.307,280.635C236.307,280.635 254.537,347.133 255.57,351.38C256.966,357.13 257.445,369.085 244.132,369.085C229.257,369.085 222.032,369.085 222.032,369.085L220.341,398.938L223.384,471.83C223.792,480.871 231.464,488.261 240.523,488.268C249.543,488.276 257.201,480.981 257.656,471.978L263.822,349.859L268.918,471.829C269.326,480.87 277,488.261 286.057,488.267C295.078,488.274 302.735,480.98 303.19,471.976L305.871,418.932C298.884,418.381 301.083,411.677 301.083,411.677Z" style="fill:rgb(156,85,173);fill-rule:nonzero;"/>
    </g>
    <g transform="matrix(0.0695725,0,0,0.0695725,4.30571,3.70746)">
        <path d="M241.522,363.84C244.069,363.84 246.462,362.713 248.085,360.748C249.709,358.78 250.415,356.537 249.866,353.666L217.083,234.774L217.083,215.951C221.831,223.28 225.188,231.738 227.446,240.143C229.206,246.693 230.124,253.315 230.842,260.044C231.629,267.379 238.217,272.962 245.574,272.582C252.906,272.203 258.842,265.985 258.902,258.647C258.939,254.127 258.904,249.641 258.682,245.126C258.379,238.926 257.412,232.721 256.152,226.651C253.521,213.994 248.836,201.719 242.393,190.509C235.946,179.285 227.801,169.063 218.411,160.161C213.899,155.883 209.083,151.911 204.022,148.299C200.149,145.535 196.096,142.782 191.754,140.807C191.367,140.631 190.975,140.476 190.578,140.325C177.762,134.053 162.394,133.975 149.519,140.123C144.945,141.732 140.74,144.64 136.787,147.386C131.781,150.862 127.033,154.701 122.541,158.818C112.971,167.587 104.811,177.732 98.109,188.833C94.754,194.391 91.886,200.29 89.476,206.316C87.117,212.222 85.054,218.428 83.771,224.665C82.488,230.892 81.552,237.08 80.945,243.41C80.466,248.404 80.57,253.44 80.607,258.449C80.609,258.514 80.609,258.582 80.609,258.649C80.664,266.03 86.67,272.242 94.035,272.587C101.365,272.931 107.881,267.334 108.67,260.043C109.391,253.314 110.309,246.692 112.066,240.144C114.365,231.589 117.828,223.164 122.601,215.681L122.601,233.343L89.724,353.691C89.232,356.199 89.882,358.766 91.502,360.738C93.125,362.71 95.521,363.842 98.075,363.842L125.44,363.842L130.441,474.084C130.863,482.701 138.177,489.738 146.814,489.765C155.437,489.791 162.777,482.844 163.25,474.24L169.302,363.844L170.677,363.844L175.676,474.086C176.098,482.703 183.414,489.74 192.049,489.767C200.672,489.793 208.014,482.846 208.487,474.242L214.539,363.846L241.522,363.846L241.522,363.84Z" style="fill:rgb(156,85,173);fill-rule:nonzero;"/>
    </g>
</svg>
