<?xml version="1.0" encoding="UTF-8" standalone="no"?>
<!DOCTYPE svg PUBLIC "-//W3C//DTD SVG 1.1//EN" "http://www.w3.org/Graphics/SVG/1.1/DTD/svg11.dtd">
<svg width="100%" height="100%" viewBox="0 0 43 43" version="1.1" xmlns="http://www.w3.org/2000/svg" xmlns:xlink="http://www.w3.org/1999/xlink" xml:space="preserve" style="fill-rule:evenodd;clip-rule:evenodd;stroke-linecap:round;stroke-linejoin:round;stroke-miterlimit:1.5;">
    <g transform="matrix(1,0,0,1,-8.617,-7.087)">
        <circle cx="29.96" cy="28.43" r="20.843" style="fill:none;stroke:rgb(82,100,111);stroke-width:1px;"/>
    </g>
    <g transform="matrix(0.100713,0,0,0.100713,6.61221,6.61226)">
        <path d="M265.035,262.704L265.126,262.704C265.578,260.922 266.081,258.779 266.584,256.956L268.955,249.385L261.064,249.385L263.481,256.961C264.075,258.824 264.573,260.927 265.035,262.704Z" style="fill:rgb(82,100,111);fill-rule:nonzero;"/>
    </g>
    <g transform="matrix(0.100713,0,0,0.100713,6.61221,6.61226)">
        <path d="M137.888,54.908L137.794,54.908C137.342,56.69 136.837,58.834 136.339,60.657L133.967,68.233L141.861,68.233L139.441,60.657C138.845,58.788 138.339,56.69 137.888,54.908Z" style="fill:rgb(82,100,111);fill-rule:nonzero;"/>
    </g>
    <g transform="matrix(0.100713,0,0,0.100713,6.61221,6.61226)">
        <path d="M30.603,260.739C31.941,269.239 36.506,276.719 43.468,281.787C49.043,285.849 55.61,287.977 62.376,287.977C64.054,287.977 65.751,287.845 67.446,287.576L111.571,280.644C113.348,280.954 115.154,281.131 116.979,281.131C118.657,281.131 120.354,281.004 122.049,280.735L126.048,280.105C129.551,281.76 133.431,282.771 137.565,282.771L265.502,282.771C280.426,282.771 292.527,270.665 292.527,255.741L292.527,61.139C292.527,46.21 280.425,34.109 265.502,34.109L245.424,34.109L245.059,31.783C243.723,23.283 239.158,15.808 232.196,10.735C225.24,5.667 216.739,3.605 208.218,4.951L154.035,13.462L27.223,31.656C9.674,34.414 -2.364,50.938 0.394,68.497L30.603,260.739ZM145.553,81.192L142.77,72.473L133.051,72.473L130.405,81.192L124.611,81.192L134.47,50.445L141.63,50.445L151.623,81.192L145.553,81.192ZM257.367,236.431L260.15,245.145L269.869,245.145L272.515,236.431L278.309,236.431L268.448,267.178L261.288,267.178L251.295,236.431L257.367,236.431ZM249.299,136.913C249.299,136.913 249.893,169.097 208.731,203.242C204.13,207.051 196.264,207.055 191.684,203.226C150.822,169.087 153.797,136.913 153.797,136.913C153.797,122.481 165.496,110.782 179.928,110.782C188.921,110.782 196.848,115.332 201.545,122.253C206.247,115.332 214.179,110.782 223.167,110.782C237.599,110.781 249.299,122.481 249.299,136.913ZM83.434,35.084L209.828,15.219C215.576,14.3 221.35,15.707 226.067,19.139C230.78,22.572 233.878,27.635 234.781,33.398L234.887,34.109L137.555,34.109C122.631,34.109 110.525,46.214 110.525,61.139L110.525,255.742C110.525,260.855 112.023,265.584 114.493,269.656L111.789,270.082C109.085,269.412 106.506,268.229 104.187,266.538C99.47,263.105 96.377,258.043 95.471,252.279L65.26,60.037C63.394,48.145 71.546,36.947 83.434,35.084ZM28.77,41.934L61.096,37.298C56.036,44.027 53.583,52.694 54.992,61.647L85.201,253.895C86.351,261.207 89.903,267.757 95.306,272.667L65.828,277.304C60.059,278.198 54.298,276.811 49.588,273.383C44.871,269.95 41.778,264.883 40.872,259.124L10.661,66.877C8.795,54.995 16.948,43.798 28.77,41.934Z" style="fill:rgb(82,100,111);fill-rule:nonzero;"/>
    </g>
</svg>
