<?xml version="1.0" encoding="UTF-8" standalone="no"?>
<!DOCTYPE svg PUBLIC "-//W3C//DTD SVG 1.1//EN" "http://www.w3.org/Graphics/SVG/1.1/DTD/svg11.dtd">
<svg width="100%" height="100%" viewBox="0 0 43 43" version="1.1" xmlns="http://www.w3.org/2000/svg" xmlns:xlink="http://www.w3.org/1999/xlink" xml:space="preserve" style="fill-rule:evenodd;clip-rule:evenodd;stroke-linecap:round;stroke-linejoin:round;stroke-miterlimit:1.5;">
    <g transform="matrix(1,0,0,1,-8.617,-7.087)">
        <circle cx="29.96" cy="28.43" r="20.843" style="fill:none;stroke:rgb(93,160,191);stroke-width:1px;"/>
    </g>
    <g transform="matrix(0.0710855,0,0,0.0710855,4.11702,3.13258)">
        <path d="M243.458,153.771C243.543,153.771 243.629,153.765 243.715,153.765C243.802,153.765 243.887,153.771 243.973,153.771C286.437,153.771 320.857,119.349 320.857,76.884C320.857,34.424 286.437,0 243.973,0C243.887,0 243.802,0.006 243.715,0.006C243.629,0.006 243.544,0 243.458,0C200.993,0 166.574,34.424 166.574,76.884C166.572,119.349 200.991,153.771 243.458,153.771Z" style="fill:rgb(93,160,191);fill-rule:nonzero;"/>
    </g>
    <g transform="matrix(0.0710855,0,0,0.0710855,4.11702,3.13258)">
        <path d="M436.565,311.038L349.863,247.996L322.446,181.043C317.228,168.303 304.801,160.707 291.808,160.993L291.804,160.963L242.325,160.963L192.848,160.963L192.844,160.993C179.85,160.707 167.425,168.303 162.206,181.043L134.788,247.996L48.086,311.038C33.643,321.54 30.446,341.762 40.95,356.207C47.277,364.905 57.135,369.527 67.129,369.527C73.723,369.527 80.377,367.515 86.117,363.338L179.861,295.184L177.472,319.859L88.835,409.698C76.538,422.493 73.07,441.396 80.026,457.725C86.981,474.052 103.013,484.651 120.761,484.651L163.129,484.651C152.211,474.769 145.249,460.024 145.249,443.558C145.249,413.87 167.82,389.719 195.564,389.719C195.564,389.719 228.017,389.719 243.822,389.719C259.629,389.719 272.172,402.641 272.172,402.641L195.564,402.641C174.479,402.641 157.324,420.995 157.324,443.558C157.324,466.12 174.479,484.474 195.564,484.474L269.756,484.474C270.588,484.414 271.436,484.411 272.256,484.313L361.939,484.313C379.687,484.313 395.718,473.713 402.674,457.384C409.629,441.058 406.162,422.156 393.866,409.359L307.16,319.408L307.136,319.408L304.791,295.184L398.534,363.338C404.272,367.516 410.929,369.527 417.52,369.527C427.515,369.527 437.373,364.905 443.7,356.207C454.205,341.762 451.009,321.54 436.565,311.038Z" style="fill:rgb(93,160,191);fill-rule:nonzero;"/>
    </g>
</svg>
