<?xml version="1.0" encoding="UTF-8" standalone="no"?>
<!DOCTYPE svg PUBLIC "-//W3C//DTD SVG 1.1//EN" "http://www.w3.org/Graphics/SVG/1.1/DTD/svg11.dtd">
<svg width="100%" height="100%" viewBox="0 0 43 43" version="1.1" xmlns="http://www.w3.org/2000/svg" xmlns:xlink="http://www.w3.org/1999/xlink" xml:space="preserve" style="fill-rule:evenodd;clip-rule:evenodd;stroke-linecap:round;stroke-linejoin:round;stroke-miterlimit:1.5;">
    <g transform="matrix(1,0,0,1,-8.617,-7.087)">
        <circle cx="29.96" cy="28.43" r="20.843" style="fill:none;stroke:rgb(93,160,191);stroke-width:1px;"/>
    </g>
    <g transform="matrix(0.984696,0,0,0.984696,6.42614,6.42563)">
        <path d="M15.97,13.651C18.035,13.651 19.713,11.975 19.713,9.907C19.713,7.839 18.035,6.164 15.97,6.164C13.906,6.164 12.228,7.839 12.228,9.907C12.228,11.975 13.905,13.651 15.97,13.651Z" style="fill:rgb(93,160,191);fill-rule:nonzero;"/>
    </g>
    <g transform="matrix(0.984696,0,0,0.984696,6.42614,6.42563)">
        <path d="M11.247,17.962L9.123,22.421L8.842,23.005L5.063,23.005L2.438,12.507L0.562,12.977L3.555,24.939L5.065,24.939L3.125,29.214L4.299,29.748L6.483,24.939L9.685,24.939L11.782,29.739L12.963,29.223L11.091,24.939L12.45,24.939L12.45,23.005L10.086,23.005L10.366,22.421L11.037,21.014L12.372,18.21L18.873,18.21L18.873,17.087L11.663,17.087L11.247,17.962Z" style="fill:rgb(93,160,191);fill-rule:nonzero;"/>
    </g>
    <g transform="matrix(0.984696,0,0,0.984696,6.42614,6.42563)">
        <path d="M12.451,13.152L10.368,10.177L9.284,10.354L4.715,19.273L5.369,22.421L8.408,22.421L11.083,16.811L11.247,16.463L11.247,16.385L19.738,16.385L19.738,14.42L12.346,14.42L12.451,13.152Z" style="fill:rgb(93,160,191);fill-rule:nonzero;"/>
    </g>
    <g transform="matrix(0.984696,0,0,0.984696,6.42614,6.42563)">
        <path d="M14.435,19.801L12.328,19.801L11.081,22.421L14.435,22.421L14.435,30.298L17.803,30.298L17.803,19.801L17.535,19.801L14.435,19.801Z" style="fill:rgb(93,160,191);fill-rule:nonzero;"/>
    </g>
    <g transform="matrix(0.984696,0,0,0.984696,6.42614,6.42563)">
        <path d="M20.179,2.618L20.179,1.979L17.571,1.979L17.571,2.618L19.06,2.618L17.451,4.43L17.451,5.07L20.291,5.07L20.291,4.43L18.57,4.43L20.179,2.618Z" style="fill:rgb(93,160,191);fill-rule:nonzero;"/>
    </g>
    <g transform="matrix(0.984696,0,0,0.984696,6.42614,6.42563)">
        <path d="M25.485,9.943L25.485,9.435L23.418,9.435L23.418,9.943L24.599,9.943L23.324,11.379L23.324,11.887L25.576,11.887L25.576,11.379L24.209,11.379L25.485,9.943Z" style="fill:rgb(93,160,191);fill-rule:nonzero;"/>
    </g>
    <g transform="matrix(0.984696,0,0,0.984696,6.42614,6.42563)">
        <path d="M24.59,6.358L23.469,5.816L25.086,5.143L25.289,4.725L23.59,3.905L23.389,4.321L24.358,4.79L22.739,5.464L22.539,5.881L24.389,6.775L24.59,6.358Z" style="fill:rgb(93,160,191);fill-rule:nonzero;"/>
    </g>
    <g transform="matrix(0.984696,0,0,0.984696,6.42614,6.42563)">
        <path d="M29.615,7.188L27.768,7.515L29.149,5.268L29.027,4.581L26.233,5.075L26.354,5.763L27.951,5.48L26.57,7.727L26.69,8.413L29.735,7.874L29.615,7.188Z" style="fill:rgb(93,160,191);fill-rule:nonzero;"/>
    </g>
    <g transform="matrix(0.984696,0,0,0.984696,6.42614,6.42563)">
        <path d="M27.151,2.157L26.506,3.205L26.565,3.524L27.983,3.273L27.928,2.953L27.067,3.105L27.711,2.059L27.653,1.738L26.352,1.969L26.408,2.288L27.151,2.157Z" style="fill:rgb(93,160,191);fill-rule:nonzero;"/>
    </g>
    <g transform="matrix(0.984696,0,0,0.984696,6.42614,6.42563)">
        <path d="M21.6,7.202L22.08,7.434L21.28,7.766L21.18,7.972L22.094,8.413L22.193,8.208L21.641,7.939L22.438,7.607L22.539,7.401L21.699,6.996L21.6,7.202Z" style="fill:rgb(93,160,191);fill-rule:nonzero;"/>
    </g>
    <g transform="matrix(0.984696,0,0,0.984696,6.42614,6.42563)">
        <path d="M24.489,1.212L23.936,0.944L24.734,0.611L24.834,0.406L23.994,0L23.895,0.207L24.375,0.438L23.576,0.771L23.476,0.976L24.389,1.418L24.489,1.212Z" style="fill:rgb(93,160,191);fill-rule:nonzero;"/>
    </g>
    <g transform="matrix(0.984696,0,0,0.984696,6.42614,6.42563)">
        <path d="M22.193,3.134L21.641,2.866L22.438,2.533L22.539,2.328L21.699,1.922L21.6,2.128L22.08,2.36L21.28,2.692L21.18,2.898L22.094,3.34L22.193,3.134Z" style="fill:rgb(93,160,191);fill-rule:nonzero;"/>
    </g>
</svg>
