<?xml version="1.0" encoding="UTF-8" standalone="no"?>
<!DOCTYPE svg PUBLIC "-//W3C//DTD SVG 1.1//EN" "http://www.w3.org/Graphics/SVG/1.1/DTD/svg11.dtd">
<svg width="100%" height="100%" viewBox="0 0 43 43" version="1.1" xmlns="http://www.w3.org/2000/svg" xmlns:xlink="http://www.w3.org/1999/xlink" xml:space="preserve" style="fill-rule:evenodd;clip-rule:evenodd;stroke-linecap:round;stroke-linejoin:round;stroke-miterlimit:1.5;">
    <g transform="matrix(1,0,0,1,-8.617,-7.087)">
        <circle cx="29.96" cy="28.43" r="20.843" style="fill:none;stroke:rgb(237,168,104);stroke-width:1px;"/>
    </g>
    <g transform="matrix(1.03439,0,0,1.03439,5.42821,3.98468)">
        <path d="M9.743,22.4C9.266,22.199 8.068,18.65 7.936,18.242C8.317,18.471 9.223,18.833 9.665,18.644C9.138,18.363 7.403,14.649 7.24,14.123C7.564,14.445 8.313,14.204 8.313,14.204C8.313,14.204 6.695,12.426 5.877,8.776C5.278,11.961 3.593,14.382 3.593,14.382C3.593,14.382 4.475,14.561 4.741,14.096C4.685,14.609 2.786,18.468 2.327,18.764C2.74,18.924 3.861,18.402 4.104,18.334C4.038,18.754 2.012,22.397 2.012,22.397L5.447,21.512L5.017,30.767L6.735,30.767L6.305,21.532L9.743,22.4Z" style="fill:rgb(237,168,104);fill-rule:nonzero;"/>
    </g>
    <g transform="matrix(1.03439,0,0,1.03439,5.42821,3.98468)">
        <path d="M28.759,20.259C27.685,19.806 24.989,13.894 24.693,12.978C25.55,13.493 27.589,14.309 28.586,13.885C27.397,13.251 23.496,9.057 23.127,7.873C23.857,8.599 25.543,8.057 25.543,8.057C25.543,8.057 21.899,8.216 20.06,0C18.71,7.169 14.92,8.458 14.92,8.458C14.92,8.458 16.904,8.861 17.503,7.812C17.378,8.964 13.103,13.491 12.068,14.155C12.999,14.518 15.522,13.34 16.068,13.189C15.921,14.132 11.359,20.257 11.358,20.257L19.09,18.264L18.125,30.77L21.992,30.77L21.025,18.305L28.759,20.259Z" style="fill:rgb(237,168,104);fill-rule:nonzero;"/>
    </g>
    <g transform="matrix(1.03439,0,0,1.03439,5.42821,3.98468)">
        <path d="M15.963,23.527C15.895,23.334 16.031,23.15 15.94,22.979C15.849,22.807 15.553,22.285 15.146,22.285C15.075,21.943 14.733,21.59 14.494,21.224C14.369,21.384 14.301,21.794 14.301,21.794C14.301,21.794 13.663,21.145 13.412,21.075C13.127,22.237 14.266,22.692 14.266,22.692C14.266,22.692 14.204,23.45 13.811,23.763C13.418,24.076 12.872,23.961 11.977,23.729C11.083,23.495 10.952,23.134 10.086,23.237C9.22,23.339 8.608,23.707 8.73,24.755C8.853,25.803 8.95,25.63 9.231,26.123C9.513,26.614 9.132,27.682 9.121,27.858C9.109,28.036 9.975,29.327 10.009,29.653C10.043,29.976 9.967,30.395 10.146,30.464C10.326,30.532 10.723,30.577 10.804,30.516C10.92,30.428 9.865,29.031 9.967,27.979C10.146,28.117 10.653,29.18 10.787,29.517C10.922,29.853 10.847,30.287 10.847,30.287C10.847,30.287 11.548,30.437 11.583,30.336C11.619,30.232 10.728,28.801 10.736,28.408C10.745,28.013 11.035,26.845 11.193,26.839C11.35,26.834 11.813,27.152 12.477,26.856C12.509,27.063 12.492,27.852 12.548,28.1C12.77,29.101 12.697,30.364 12.701,30.433C12.705,30.502 12.83,30.442 12.864,30.51C12.898,30.578 12.864,30.698 12.932,30.749C13,30.8 13.547,30.749 13.632,30.749C13.718,30.749 13.358,30.367 13.239,30.236C13.121,30.107 13.102,28.578 13.157,28.142C13.186,27.913 13.183,27.098 13.276,27.035C13.393,27.494 13.342,27.734 13.367,27.93C13.393,28.128 13.487,28.345 13.504,28.554C13.571,29.391 13.504,30.186 13.546,30.211C13.589,30.236 13.657,30.211 13.692,30.287C13.726,30.363 13.718,30.525 13.718,30.525C13.718,30.525 14.435,30.645 14.384,30.516C14.333,30.388 14.126,30.115 14.033,29.97C13.942,29.825 13.8,27.991 13.958,27.387C14.116,26.784 14.518,26.452 14.552,25.644C14.859,25.281 14.91,24.253 15.133,24.22C15.356,24.187 15.688,24.445 15.873,24.538C16.059,24.634 16.52,24.409 16.421,24.231C16.319,24.054 16.032,23.721 15.963,23.527Z" style="fill:rgb(237,168,104);fill-rule:nonzero;"/>
    </g>
</svg>
