<?xml version="1.0" encoding="UTF-8" standalone="no"?>
<!DOCTYPE svg PUBLIC "-//W3C//DTD SVG 1.1//EN" "http://www.w3.org/Graphics/SVG/1.1/DTD/svg11.dtd">
<svg width="100%" height="100%" viewBox="0 0 43 43" version="1.1" xmlns="http://www.w3.org/2000/svg" xmlns:xlink="http://www.w3.org/1999/xlink" xml:space="preserve" style="fill-rule:evenodd;clip-rule:evenodd;stroke-linecap:round;stroke-linejoin:round;stroke-miterlimit:1.5;">
    <g transform="matrix(1,0,0,1,-8.617,-7.087)">
        <circle cx="29.96" cy="28.43" r="20.843" style="fill:none;stroke:rgb(90,180,174);stroke-width:1px;"/>
    </g>
    <g transform="matrix(0.320627,0,0,0.320627,5.59952,4.71626)">
        <path d="M64.433,24.98C58.061,26.348 51.782,22.286 50.416,15.91C49.051,9.533 53.11,3.26 59.486,1.891C65.86,0.525 72.136,4.587 73.505,10.96C74.872,17.336 70.81,23.615 64.433,24.98Z" style="fill:rgb(90,180,174);fill-rule:nonzero;"/>
    </g>
    <g transform="matrix(0.320627,0,0,0.320627,5.59952,4.71626)">
        <path d="M1.256,76.202L6.564,74.096L15.3,58.704L26.506,50.477L31.563,53.415L36.769,51.52C37.457,49.862 39.091,48.695 41,48.695C51.637,48.695 57.82,41.103 58.338,33.841C58.692,30.178 61.572,27.155 64.586,25.695C64.586,25.695 65.727,25.071 67.025,24.822C68.266,24.585 69.708,24.577 69.708,24.577L69.743,24.575C73.831,24.692 78.642,26.972 79.662,31.721L85.12,57.203C85.447,58.724 85.309,60.173 84.854,61.5C84.787,61.754 79.125,75.742 79.125,75.742L91.952,75.742C95.404,75.742 98.203,78.542 98.203,81.994C98.203,85.446 95.404,88.244 91.952,88.244L69.842,88.244C67.762,88.244 65.818,87.209 64.654,85.482C63.493,83.755 63.267,81.567 64.05,79.64L67.565,70.994L59.961,73.168L62.824,88.9C63.441,92.296 61.189,95.548 57.794,96.169C57.416,96.238 57.039,96.273 56.667,96.273C53.706,96.272 51.075,94.158 50.524,91.141L46.646,69.836C46.07,66.672 47.986,63.59 51.077,62.706L63.389,59.186L61.388,49.842C56.87,55.116 50.019,57.863 41.002,57.863C39.889,57.863 38.883,57.451 38.089,56.792L33.74,58.375L21.811,81.188L22.32,93.475C22.382,94.965 21.223,96.224 19.732,96.287C19.693,96.289 19.657,96.289 19.618,96.289C18.178,96.289 16.98,95.153 16.921,93.699L16.595,85.85L15.303,94.287C15.099,95.622 13.949,96.579 12.635,96.579C12.499,96.579 12.361,96.57 12.223,96.548C10.747,96.32 9.736,94.944 9.961,93.468L12.073,79.686L8.453,77.628L2.725,79.901C2.486,79.997 2.236,80.041 1.993,80.041C1.201,80.041 0.452,79.567 0.141,78.785C-0.265,77.764 0.235,76.606 1.256,76.202Z" style="fill:rgb(90,180,174);fill-rule:nonzero;"/>
    </g>
    <g transform="matrix(0.320627,0,0,0.320627,5.59952,4.71626)">
        <path d="M25.419,44.749C25.068,45.081 24.714,45.415 24.357,45.747C24.102,45.985 25.555,49.364 25.555,49.364L14.642,57.259C13.907,56.108 13.17,54.952 12.435,53.797C10.816,51.265 9.273,48.68 7.368,46.348C6.849,45.714 6.232,45.141 5.584,44.632C2.6,42.299 4.455,40.692 4.935,40.412C6.131,39.707 7.451,39.84 8.684,40.49C9.371,40.855 10.051,41.232 10.732,41.612C10.932,41.723 11.084,41.716 11.273,41.569C11.592,41.327 11.941,41.117 12.281,40.908C14.249,39.712 16.162,39.926 18.267,39.012C18.98,38.704 23.426,33.607 25.784,34.85C28.355,36.204 28.54,39.024 27.715,41.296C27.231,42.635 26.455,43.778 25.419,44.749Z" style="fill:rgb(90,180,174);fill-rule:nonzero;"/>
    </g>
</svg>
