<?xml version="1.0" encoding="UTF-8" standalone="no"?>
<!DOCTYPE svg PUBLIC "-//W3C//DTD SVG 1.1//EN" "http://www.w3.org/Graphics/SVG/1.1/DTD/svg11.dtd">
<svg width="100%" height="100%" viewBox="0 0 43 43" version="1.1" xmlns="http://www.w3.org/2000/svg" xmlns:xlink="http://www.w3.org/1999/xlink" xml:space="preserve" style="fill-rule:evenodd;clip-rule:evenodd;stroke-linecap:round;stroke-linejoin:round;stroke-miterlimit:1.5;">
    <g transform="matrix(1,0,0,1,-8.617,-7.087)">
        <circle cx="29.96" cy="28.43" r="20.843" style="fill:none;stroke:rgb(93,160,191);stroke-width:1px;"/>
    </g>
    <g transform="matrix(0.984653,0,0,0.984653,5.85131,5.85166)">
        <path d="M30.221,7.011L30.221,5.029L29.936,4.917C29.836,4.878 27.507,3.974 24.401,3.974C21.073,3.974 18.207,4.988 15.874,6.988C13.542,4.988 10.675,3.974 7.347,3.974C4.24,3.974 1.911,4.878 1.814,4.917L1.526,5.029L1.526,6.865C0.586,7.041 0,7.356 0,7.87C0,10.546 0,26.788 0,26.788L13.934,26.788C14.416,27.219 15.121,27.491 15.909,27.491C16.698,27.491 17.402,27.219 17.884,26.788L31.466,26.788C31.466,26.788 31.466,8.809 31.466,7.87C31.465,7.452 30.99,7.179 30.221,7.011ZM15.723,25.296C14.567,24.817 10.583,23.304 6.593,23.304C5.016,23.304 3.619,23.546 2.43,24.024L2.43,5.655C3.124,5.423 5.016,4.876 7.346,4.876C10.41,4.876 13.043,5.803 15.193,7.609L15.193,18.574L15.723,17.99L15.723,25.296ZM29.316,24.029C28.039,23.515 26.572,23.257 24.947,23.257C20.959,23.257 17.164,24.785 16.021,25.287L16.021,17.988L16.554,18.574L16.554,7.609C18.703,5.802 21.336,4.876 24.4,4.876C26.722,4.876 28.621,5.424 29.316,5.655L29.316,24.029Z" style="fill:rgb(93,160,191);fill-rule:nonzero;"/>
    </g>
    <g transform="matrix(0.984653,0,0,0.984653,5.85131,5.85166)">
        <path d="M4.217,8.071L4.404,8.778C9.109,7.53 13.342,9.84 13.385,9.863L13.74,9.224C13.559,9.123 9.212,6.747 4.217,8.071Z" style="fill:rgb(93,160,191);fill-rule:nonzero;"/>
    </g>
    <g transform="matrix(0.984653,0,0,0.984653,5.85131,5.85166)">
        <path d="M4.217,10.141L4.404,10.848C9.109,9.599 13.342,11.909 13.385,11.932L13.74,11.294C13.559,11.192 9.212,8.817 4.217,10.141Z" style="fill:rgb(93,160,191);fill-rule:nonzero;"/>
    </g>
    <g transform="matrix(0.984653,0,0,0.984653,5.85131,5.85166)">
        <path d="M4.217,12.086L4.404,12.793C9.109,11.546 13.342,13.855 13.385,13.878L13.74,13.239C13.559,13.138 9.212,10.763 4.217,12.086Z" style="fill:rgb(93,160,191);fill-rule:nonzero;"/>
    </g>
    <g transform="matrix(0.984653,0,0,0.984653,5.85131,5.85166)">
        <path d="M4.217,14.218L4.404,14.925C9.109,13.677 13.342,15.987 13.385,16.01L13.74,15.372C13.559,15.269 9.212,12.893 4.217,14.218Z" style="fill:rgb(93,160,191);fill-rule:nonzero;"/>
    </g>
    <g transform="matrix(0.984653,0,0,0.984653,5.85131,5.85166)">
        <path d="M4.217,16.193L4.404,16.9C9.109,15.653 13.342,17.962 13.385,17.986L13.74,17.346C13.559,17.246 9.212,14.87 4.217,16.193Z" style="fill:rgb(93,160,191);fill-rule:nonzero;"/>
    </g>
    <g transform="matrix(0.984653,0,0,0.984653,5.85131,5.85166)">
        <path d="M4.217,18.222L4.404,18.929C9.109,17.681 13.342,19.99 13.385,20.013L13.74,19.374C13.559,19.273 9.212,16.899 4.217,18.222Z" style="fill:rgb(93,160,191);fill-rule:nonzero;"/>
    </g>
    <g transform="matrix(0.984653,0,0,0.984653,5.85131,5.85166)">
        <path d="M4.217,20.257L4.404,20.963C9.109,19.715 13.342,22.025 13.385,22.048L13.74,21.411C13.559,21.308 9.212,18.932 4.217,20.257Z" style="fill:rgb(93,160,191);fill-rule:nonzero;"/>
    </g>
    <g transform="matrix(0.984653,0,0,0.984653,5.85131,5.85166)">
        <path d="M18.578,9.917C18.621,9.894 22.853,7.585 27.558,8.832L27.746,8.125C22.75,6.802 18.404,9.178 18.223,9.279L18.578,9.917Z" style="fill:rgb(93,160,191);fill-rule:nonzero;"/>
    </g>
    <g transform="matrix(0.984653,0,0,0.984653,5.85131,5.85166)">
        <path d="M18.223,11.349L18.578,11.987C18.621,11.964 22.853,9.654 27.558,10.903L27.746,10.195C22.75,8.871 18.404,11.246 18.223,11.349Z" style="fill:rgb(93,160,191);fill-rule:nonzero;"/>
    </g>
    <g transform="matrix(0.984653,0,0,0.984653,5.85131,5.85166)">
        <path d="M18.223,13.293L18.578,13.932C18.621,13.908 22.853,11.599 27.558,12.846L27.746,12.139C22.75,10.817 18.404,13.192 18.223,13.293Z" style="fill:rgb(93,160,191);fill-rule:nonzero;"/>
    </g>
    <g transform="matrix(0.984653,0,0,0.984653,5.85131,5.85166)">
        <path d="M18.223,15.426L18.578,16.064C18.621,16.041 22.853,13.732 27.558,14.98L27.746,14.273C22.75,12.947 18.404,15.323 18.223,15.426Z" style="fill:rgb(93,160,191);fill-rule:nonzero;"/>
    </g>
    <g transform="matrix(0.984653,0,0,0.984653,5.85131,5.85166)">
        <path d="M18.223,17.401L18.578,18.041C18.621,18.018 22.853,15.708 27.558,16.955L27.746,16.248C22.75,14.925 18.404,17.299 18.223,17.401Z" style="fill:rgb(93,160,191);fill-rule:nonzero;"/>
    </g>
    <g transform="matrix(0.984653,0,0,0.984653,5.85131,5.85166)">
        <path d="M18.223,19.43L18.578,20.068C18.621,20.045 22.853,17.736 27.558,18.984L27.746,18.277C22.75,16.953 18.404,19.328 18.223,19.43Z" style="fill:rgb(93,160,191);fill-rule:nonzero;"/>
    </g>
    <g transform="matrix(0.984653,0,0,0.984653,5.85131,5.85166)">
        <path d="M18.223,21.464L18.578,22.101C18.621,22.08 22.853,19.768 27.558,21.017L27.746,20.31C22.75,18.986 18.404,21.363 18.223,21.464Z" style="fill:rgb(93,160,191);fill-rule:nonzero;"/>
    </g>
</svg>
