<?xml version="1.0" encoding="UTF-8" standalone="no"?>
<!DOCTYPE svg PUBLIC "-//W3C//DTD SVG 1.1//EN" "http://www.w3.org/Graphics/SVG/1.1/DTD/svg11.dtd">
<svg width="100%" height="100%" viewBox="0 0 43 43" version="1.1" xmlns="http://www.w3.org/2000/svg" xmlns:xlink="http://www.w3.org/1999/xlink" xml:space="preserve" style="fill-rule:evenodd;clip-rule:evenodd;stroke-linecap:round;stroke-linejoin:round;stroke-miterlimit:1.5;">
    <g transform="matrix(1,0,0,1,-8.617,-7.087)">
        <circle cx="29.96" cy="28.43" r="20.843" style="fill:none;stroke:rgb(90,180,174);stroke-width:1px;"/>
    </g>
    <g transform="matrix(0.0694752,0,0,0.0694752,5.91724,4.80463)">
        <path d="M357.76,312.234C354.48,304.386 346.582,299.361 339.047,296.271L288.109,272.816L263.636,252.177L224.313,291.288L224.283,291.288L241.254,404.733C241.315,405.122 241.214,405.52 240.983,405.838L223.239,430.121C222.957,430.512 222.507,430.738 222.027,430.738C221.547,430.738 221.097,430.509 220.815,430.121L203.073,405.838C202.839,405.52 202.741,405.119 202.8,404.733L219.769,291.286L219.743,291.286L180.422,252.177L155.949,272.816L105.008,296.271C97.471,299.361 90.065,304.054 86.297,312.234C86.297,312.234 30.926,444.058 60.959,444.058L383.104,444.058C413.132,444.061 357.76,312.234 357.76,312.234Z" style="fill:rgb(90,180,174);fill-rule:nonzero;"/>
    </g>
    <g transform="matrix(0.0694752,0,0,0.0694752,5.91724,4.80463)">
        <path d="M361.298,131.489C362.065,131.406 362.755,131.04 363.23,130.447C363.711,129.855 363.928,129.092 363.843,128.333C363.273,123.464 362.7,118.605 362.135,113.736L360.948,103.547C360.767,102.026 359.406,100.92 357.874,101.057L355.671,101.06L355.713,66.858L356.866,66.439L360.711,65.051C363.967,63.873 366.135,60.786 366.135,57.327C366.135,53.867 363.967,50.779 360.711,49.6L224.819,0.49C223.012,-0.163 221.036,-0.163 219.233,0.49L83.339,49.6C80.085,50.779 77.917,53.867 77.917,57.327C77.917,60.786 80.085,63.873 83.339,65.051L133.575,83.206C130.029,94.401 128.415,107.219 128.56,121.49C129.444,202.892 176.698,251.434 220.422,251.434C263.635,251.434 311.401,202.892 312.281,121.49C312.427,107.658 310.902,95.199 307.584,84.252L344.112,71.052L344.189,101.073L341.982,101.072C340.449,100.938 339.087,102.04 338.912,103.573L336.055,128.361C335.969,129.116 336.192,129.871 336.67,130.465C337.149,131.056 337.846,131.435 338.602,131.498M220.428,231.666C182.28,231.666 155.957,186.978 150.647,142.305C145.737,100.991 205.485,99.068 208.955,124.675C210.024,132.547 200.985,140.98 202.01,144.231C207.066,160.28 290.782,91.848 290.21,142.285C289.807,177.896 256.775,231.666 220.428,231.666Z" style="fill:rgb(90,180,174);fill-rule:nonzero;"/>
    </g>
</svg>
