<?xml version="1.0" encoding="UTF-8" standalone="no"?>
<!DOCTYPE svg PUBLIC "-//W3C//DTD SVG 1.1//EN" "http://www.w3.org/Graphics/SVG/1.1/DTD/svg11.dtd">
<svg width="100%" height="100%" viewBox="0 0 43 43" version="1.1" xmlns="http://www.w3.org/2000/svg" xmlns:xlink="http://www.w3.org/1999/xlink" xml:space="preserve" style="fill-rule:evenodd;clip-rule:evenodd;stroke-linecap:round;stroke-linejoin:round;stroke-miterlimit:1.5;">
    <g transform="matrix(1,0,0,1,-8.617,-7.087)">
        <circle cx="29.96" cy="28.43" r="20.843" style="fill:none;stroke:rgb(82,100,111);stroke-width:1px;"/>
    </g>
    <g transform="matrix(0.0394633,0,0,0.0394633,5.96974,5.96963)">
        <path d="M662.914,632.351L530.07,632.351L254.474,632.351C242.984,632.351 233.668,641.666 233.668,653.157L233.668,665.962C233.668,677.452 242.983,686.772 254.474,686.772L731.736,686.772L731.736,632.354L662.914,632.351Z" style="fill:rgb(82,100,111);fill-rule:nonzero;"/>
    </g>
    <g transform="matrix(0.0394633,0,0,0.0394633,6.96974,5.96963)">
        <circle cx="211.187" cy="189.625" r="115.19" style="fill:rgb(82,100,111);"/>
    </g>
    <g transform="matrix(0.0394633,0,0,0.0394633,6.96974,5.96963)">
        <path d="M492.234,472.147L228.265,472.001L222.015,471.981L222.015,441.349L221.798,415.709C221.798,354.464 172.147,304.811 110.899,304.811C108.824,304.811 106.763,304.881 104.715,304.993L104.559,304.811C46.813,304.813 0,351.625 0,409.372L0,704.675L222.015,704.675L222.015,578.876L219.078,578.645C218.869,578.626 218.817,578.647 218.687,578.647C203.666,578.647 189.27,572.323 179.125,561.248L89.013,462.885C86.14,459.75 86.353,454.882 89.489,452.011C92.622,449.138 97.492,449.352 100.363,452.487L190.474,550.849C197.796,558.842 208.122,563.73 218.995,563.888C219.718,563.898 229.589,564.04 229.589,564.04L492.234,564.04C517.609,564.04 538.181,543.469 538.181,518.093C538.182,492.717 517.609,472.147 492.234,472.147Z" style="fill:rgb(82,100,111);fill-rule:nonzero;"/>
    </g>
    <g transform="matrix(0.0394633,0,0,0.0394633,6.96974,5.96963)">
        <path d="M765.197,309.111C754.453,305.43 742.758,311.16 739.074,321.905L651.865,576.495L339.803,576.495C328.447,576.495 319.236,585.701 319.236,597.059C319.236,608.417 328.447,617.625 339.803,617.625L666.31,617.625C673.304,617.625 679.478,614.122 683.189,608.784C684.472,607.09 685.519,605.177 686.248,603.055L778,335.225C781.67,324.486 775.947,312.79 765.197,309.111Z" style="fill:rgb(82,100,111);fill-rule:nonzero;"/>
    </g>
</svg>
