<?xml version="1.0" encoding="UTF-8" standalone="no"?>
<!-- Generator: Adobe Illustrator 16.0.0, SVG Export Plug-In . SVG Version: 6.00 Build 0)  -->
<!DOCTYPE svg  PUBLIC '-//W3C//DTD SVG 1.1//EN'  'http://www.w3.org/Graphics/SVG/1.1/DTD/svg11.dtd'>
<svg id="Capa_1" style="enable-background:new 0 0 478.2 478.2" xmlns="http://www.w3.org/2000/svg" xml:space="preserve" height="512px" viewBox="0 0 478.2 478.2" width="512px" version="1.1" y="0px" x="0px" xmlns:xlink="http://www.w3.org/1999/xlink">
	<path d="m344.2 191.3c0 10.5-8.601 19.1-19.101 19.1s-19.1-8.6-19.1-19.1 8.6-19.1 19.1-19.1 19.1 8.6 19.1 19.1zm-1.1-61.3l-10.7-15.8-63.4 42.8 10.7 15.8 63.4-42.8zm-134 26.9l-63.4-42.8-10.7 15.8 63.4 42.8 10.7-15.8zm154.3 177.8c0 26.8-21 47.8-47.801 47.8h-153c-26.8 0-47.8-21-47.8-47.8s21-47.8 47.8-47.8h153c26.7 0 47.8 21 47.8 47.8zm-191.4 9.6h-36.3c3.9 11.5 13.4 19.101 26.8 19.101h9.5v-19.1zm0.2-38.3h-9.6c-11.5 0-23 7.6-26.8 19.1h36.4v-19.1zm57.3 38.3h-38.2v19.1h38.2v-19.1zm0-38.3h-38.2v19.1h38.2v-19.1zm57.4 38.3h-38.2v19.1h38.2v-19.1zm0-38.3h-38.2v19.1h38.2v-19.1zm55.4 38.3h-36.3v19.1h9.6c13.4 0 22.9-7.7 26.7-19.1zm0.1-19.2c-3.8-11.5-13.4-19.1-26.8-19.1h-9.5v19.1h36.3zm-189.4-114.7c10.5 0 19.1-8.6 19.1-19.1s-8.6-19.1-19.1-19.1-19.1 8.6-19.1 19.1 8.6 19.1 19.1 19.1zm325.2 28.7c0 132-107.1 239.1-239.1 239.1s-239.1-107.1-239.1-239.1 107.1-239.1 239.1-239.1c131.9 0 239.1 107.1 239.1 239.1zm-19.2 0c0-122.4-97.5-219.9-219.9-219.9s-219.9 97.5-219.9 219.9 97.5 219.9 219.9 219.9 219.9-97.5 219.9-219.9z" fill="#52646f"/>
</svg>
