<?xml version="1.0" encoding="UTF-8" standalone="no"?>
<!-- Generator: Adobe Illustrator 16.0.0, SVG Export Plug-In . SVG Version: 6.00 Build 0)  -->
<!DOCTYPE svg  PUBLIC '-//W3C//DTD SVG 1.1//EN'  'http://www.w3.org/Graphics/SVG/1.1/DTD/svg11.dtd'>
<svg id="Capa_1" style="enable-background:new 0 0 478.2 478.2" xmlns="http://www.w3.org/2000/svg" xml:space="preserve" height="512px" viewBox="0 0 478.2 478.2" width="512px" version="1.1" y="0px" x="0px" xmlns:xlink="http://www.w3.org/1999/xlink">
	<path d="m306 172.1c0-10.5 8.6-19.1 19.1-19.1s19.101 8.6 19.101 19.1-8.601 19.1-19.101 19.1-19.1-8.6-19.1-19.1zm-153 19.1c10.5 0 19.1-8.6 19.1-19.1s-8.6-19.1-19.1-19.1-19.1 8.6-19.1 19.1 8.6 19.1 19.1 19.1zm325.2 47.9c0 132-107.1 239.1-239.1 239.1s-239.1-107.1-239.1-239.1 107.1-239.1 239.1-239.1c131.9 0 239.1 107.1 239.1 239.1zm-19.2 0c0-122.4-97.5-219.9-219.9-219.9s-219.9 97.5-219.9 219.9 97.5 219.9 219.9 219.9 219.9-97.5 219.9-219.9zm-363.4 47.7h286.9s-19.1 114.8-143.4 114.8c-124.4 0-143.5-114.7-143.5-114.8zm260.1 19.2h-235.2s24.9 76.5 118.6 76.5 116.6-76.5 116.6-76.5z" fill="#5da0bf"/>
</svg>
