<?xml version="1.0" encoding="UTF-8" standalone="no"?>
<!-- Generator: Adobe Illustrator 16.0.0, SVG Export Plug-In . SVG Version: 6.00 Build 0)  -->
<!DOCTYPE svg  PUBLIC '-//W3C//DTD SVG 1.1//EN'  'http://www.w3.org/Graphics/SVG/1.1/DTD/svg11.dtd'>
<svg id="Capa_1" style="enable-background:new 0 0 478.2 478.2" xmlns="http://www.w3.org/2000/svg" xml:space="preserve" height="512px" viewBox="0 0 478.2 478.2" width="512px" version="1.1" y="0px" x="0px" xmlns:xlink="http://www.w3.org/1999/xlink">
	<path d="m239.1 0c-132 0-239.1 107.1-239.1 239.1s107.1 239.1 239.1 239.1 239.1-107.1 239.1-239.1-107.2-239.1-239.1-239.1zm0 459c-122.4 0-219.9-97.5-219.9-219.9s97.5-219.9 219.9-219.9 219.9 97.5 219.9 219.9-97.5 219.9-219.9 219.9zm-86.1-248.6c-10.5 0-19.1-8.6-19.1-19.1s8.6-19.1 19.1-19.1 19.1 8.6 19.1 19.1-8.6 19.1-19.1 19.1zm126.7-37.6l-10.7-15.8 63.4-42.8 10.7 15.8-63.4 42.8zm-81.2-0.1l-63.4-42.8 10.7-15.8 63.4 42.8-10.7 15.8zm-45.5 152.4h172.1v19.1h-172.1v-19.1zm191.2-133.8c0 10.5-8.601 19.1-19.101 19.1s-19.1-8.6-19.1-19.1 8.6-19.1 19.1-19.1 19.1 8.6 19.1 19.1z" fill="#5ab4ae"/>
</svg>
