<?xml version="1.0" encoding="UTF-8" standalone="no"?>
<!-- Generator: Adobe Illustrator 16.0.0, SVG Export Plug-In . SVG Version: 6.00 Build 0)  -->
<!DOCTYPE svg  PUBLIC '-//W3C//DTD SVG 1.1//EN'  'http://www.w3.org/Graphics/SVG/1.1/DTD/svg11.dtd'>
<svg id="Capa_1" style="enable-background:new 0 0 478.2 478.2" xmlns="http://www.w3.org/2000/svg" xml:space="preserve" height="512px" viewBox="0 0 478.2 478.2" width="512px" version="1.1" y="0px" x="0px" xmlns:xlink="http://www.w3.org/1999/xlink">
	<path d="m239.1 286.9c-47.8 0-86.1 21-86.1 47.8s38.2 47.8 86.1 47.8c47.9 0 86.101-21 86.101-47.8-0.1-26.8-38.3-47.8-86.1-47.8zm0 76.5c-36.3 0-66.899-13.4-66.899-28.7s30.6-28.7 66.9-28.7c36.301 0 66.9 13.4 66.9 28.7s-30.6 28.7-66.9 28.7zm-86.1-189.4l-26.8 17.3-9.5-15.4 19.1-13.3-19.1-13.4 9.5-15.3 26.8 17.2 26.8-17.2 9.5 15.3-19.1 13.4 19.1 13.3-9.5 15.4-26.8-17.3zm86.1-174c-132 0-239.1 107.1-239.1 239.1s107.1 239.1 239.1 239.1 239.1-107.1 239.1-239.1-107.2-239.1-239.1-239.1zm0 459c-122.4 0-219.9-97.5-219.9-219.9s97.5-219.9 219.9-219.9 219.9 97.5 219.9 219.9-97.5 219.9-219.9 219.9zm122.4-309.8l-19.2 13.4 19.2 13.3-9.6 15.4-26.8-17.3-26.7 17.3-9.601-15.4 19.101-13.3-19.1-13.4 9.601-15.3 26.699 17.2 26.801-17.2 9.6 15.3z" fill="#52646f"/>
</svg>
