<?xml version="1.0" encoding="iso-8859-1"?>
<!-- Generator: Adobe Illustrator 16.0.0, SVG Export Plug-In . SVG Version: 6.00 Build 0)  -->
<!DOCTYPE svg PUBLIC "-//W3C//DTD SVG 1.1//EN" "http://www.w3.org/Graphics/SVG/1.1/DTD/svg11.dtd">
<svg xmlns="http://www.w3.org/2000/svg" xmlns:xlink="http://www.w3.org/1999/xlink" version="1.1" id="Capa_1" x="0px" y="0px" width="512px" height="512px" viewBox="0 0 478.201 478.2" style="enable-background:new 0 0 478.201 478.2;" xml:space="preserve">
<g>
	<path d="M172.15,191.2c0,10.5-8.6,19.1-19.1,19.1s-19.1-8.6-19.1-19.1s8.5-19.1,19.1-19.1S172.15,180.7,172.15,191.2z    M160.25,114.1l-63.4,42.8l10.7,15.9l63.4-42.8L160.25,114.1z M133.95,344.2v19.1c0,0,38.2-38.2,105.2-38.2   c67,0,105.2,38.2,105.2,38.2v-19.1c0,0-38.3-38.2-105.2-38.2C172.15,306,133.95,344.3,133.95,344.2z M478.15,239.1   c0,132-107.1,239.101-239.1,239.101S0.05,371,0.05,239.1C0.05,107.2,107.15,0,239.15,0C371.15,0,478.15,107.1,478.15,239.1z    M459.05,239.1c0-122.399-97.5-219.899-219.9-219.899c-122.399,0-220,97.5-220,219.899c0,122.4,97.5,219.9,219.9,219.9   C361.451,459,459.05,361.5,459.05,239.1z M344.25,191.2c0-10.5-8.5-19.1-19.101-19.1c-10.6,0-19.1,8.6-19.1,19.1   s8.6,19.1,19.1,19.1S344.25,201.7,344.25,191.2z M307.25,130l63.399,42.8l10.7-15.9l-63.399-42.8L307.25,130z" fill="#52646f"/>
</g>
<g>
</g>
<g>
</g>
<g>
</g>
<g>
</g>
<g>
</g>
<g>
</g>
<g>
</g>
<g>
</g>
<g>
</g>
<g>
</g>
<g>
</g>
<g>
</g>
<g>
</g>
<g>
</g>
<g>
</g>
</svg>
