<?xml version="1.0" encoding="UTF-8" standalone="no"?>
<!-- Generator: Adobe Illustrator 16.0.0, SVG Export Plug-In . SVG Version: 6.00 Build 0)  -->
<!DOCTYPE svg  PUBLIC '-//W3C//DTD SVG 1.1//EN'  'http://www.w3.org/Graphics/SVG/1.1/DTD/svg11.dtd'>
<svg id="Capa_1" style="enable-background:new 0 0 478.201 478.2" xmlns="http://www.w3.org/2000/svg" xml:space="preserve" height="512px" viewBox="0 0 478.201 478.2" width="512px" version="1.1" y="0px" x="0px" xmlns:xlink="http://www.w3.org/1999/xlink">
	<path d="m172.15 191.2c0 10.5-8.6 19.1-19.1 19.1s-19.1-8.6-19.1-19.1 8.5-19.1 19.1-19.1 19.1 8.6 19.1 19.1zm-11.9-77.1l-63.4 42.8 10.7 15.9 63.4-42.8-10.7-15.9zm-26.3 230.1v19.1s38.2-38.2 105.2-38.2 105.2 38.2 105.2 38.2v-19.1s-38.3-38.2-105.2-38.2c-67 0-105.2 38.3-105.2 38.2zm344.2-105.1c0 132-107.1 239.1-239.1 239.1s-239-107.2-239-239.1c0-131.9 107.1-239.1 239.1-239.1s239 107.1 239 239.1zm-19.1 0c0-122.4-97.5-219.9-219.9-219.9s-220 97.5-220 219.9 97.5 219.9 219.9 219.9 220-97.5 220-219.9zm-114.8-47.9c0-10.5-8.5-19.1-19.101-19.1-10.6 0-19.1 8.6-19.1 19.1s8.6 19.1 19.1 19.1 19.1-8.6 19.1-19.1zm-37-61.2l63.399 42.8 10.7-15.9-63.399-42.8-10.7 15.9z" fill="#52646f"/>
</svg>
