<?xml version="1.0" encoding="UTF-8" standalone="no"?>
<!-- Generator: Adobe Illustrator 16.0.0, SVG Export Plug-In . SVG Version: 6.00 Build 0)  -->
<!DOCTYPE svg  PUBLIC '-//W3C//DTD SVG 1.1//EN'  'http://www.w3.org/Graphics/SVG/1.1/DTD/svg11.dtd'>
<svg id="Capa_1" style="enable-background:new 0 0 478.2 478.2" xmlns="http://www.w3.org/2000/svg" xml:space="preserve" height="512px" viewBox="0 0 478.2 478.2" width="512px" version="1.1" y="0px" x="0px" xmlns:xlink="http://www.w3.org/1999/xlink">
	<path d="m239.1 325.1c57.4 0 86.101-19.1 86.101-19.1s-19.1 57.4-86.1 57.4c-67 0-86.1-57.4-86.1-57.4s28.7 19.1 86.1 19.1zm-42.1-137.7l-53.6-53.5-53.5 53.5 13.4 13.4 40.1-40.2 40.2 40.2 13.4-13.4zm281.2 51.7c0 132-107.1 239.1-239.1 239.1s-239.1-107.1-239.1-239.1 107.1-239.1 239.1-239.1c131.9 0 239.1 107.1 239.1 239.1zm-19.2 0c0-122.4-97.5-219.9-219.9-219.9s-219.9 97.5-219.9 219.9 97.5 219.9 219.9 219.9 219.9-97.5 219.9-219.9zm-177.9-51.7l13.4 13.4 40.2-40.2 40.2 40.2 13.3-13.4-53.5-53.5-53.6 53.5z" fill="#eda868"/>
</svg>
